<svg width="20" height="21" viewBox="0 0 20 21" fill="none" xmlns="http://www.w3.org/2000/svg">
<path d="M2.5 7.16537V17.1654C2.5 17.3864 2.5878 17.5983 2.74408 17.7546C2.90036 17.9109 3.11232 17.9987 3.33333 17.9987H7.5C7.72101 17.9987 7.93297 17.9109 8.08925 17.7546C8.24554 17.5983 8.33333 17.3864 8.33333 17.1654V11.332H11.6667V17.1654C11.6667 17.3864 11.7545 17.5983 11.9107 17.7546C12.067 17.9109 12.279 17.9987 12.5 17.9987H16.6667C16.8877 17.9987 17.0996 17.9109 17.2559 17.7546C17.4122 17.5983 17.5 17.3864 17.5 17.1654V7.16537C17.5 7.03599 17.4699 6.9084 17.412 6.79269C17.3542 6.67697 17.2702 6.57632 17.1667 6.4987L10.5 1.4987C10.3558 1.39051 10.1803 1.33203 10 1.33203C9.81969 1.33203 9.64425 1.39051 9.5 1.4987L2.83333 6.4987C2.72984 6.57632 2.64583 6.67697 2.58798 6.79269C2.53012 6.9084 2.5 7.03599 2.5 7.16537ZM4.16667 7.58203L10 3.20703L15.8333 7.58203V16.332H13.3333V10.4987C13.3333 10.2777 13.2455 10.0657 13.0893 9.90944C12.933 9.75316 12.721 9.66537 12.5 9.66537H7.5C7.27899 9.66537 7.06702 9.75316 6.91074 9.90944C6.75446 10.0657 6.66667 10.2777 6.66667 10.4987V16.332H4.16667V7.58203Z" fill="#72D500"/>
</svg>
